HIERARCHY
ROOT Hips
{
  OFFSET 5.72205e-005 65.662 3.42586
  CHANNELS 6 Xposition Yposition Zposition Zrotation Xrotation Yrotation
  JOINT Chest
  {
    OFFSET 0 8.7983 -4.7612
    CHANNELS 3 Zrotation Xrotation Yrotation
    JOINT Chest2
    {
      OFFSET 0 8.0291 0.4195
      CHANNELS 3 Zrotation Xrotation Yrotation
      JOINT Chest3
      {
        OFFSET 0 9.9351 -2.2114
        CHANNELS 3 Zrotation Xrotation Yrotation
        JOINT Neck
        {
          OFFSET 0 22.3885 -0.4656
          CHANNELS 3 Zrotation Xrotation Yrotation
          JOINT Head
          {
            OFFSET -0.0001 12.643 3.4389
            CHANNELS 3 Zrotation Xrotation Yrotation
            End Site
            {
              OFFSET 0.0001 17.6655 0.5274
            }
          }
        }
        JOINT LeftCollar
        {
          OFFSET 2.2603 21.606 7.4023
          CHANNELS 3 Zrotation Xrotation Yrotation
          JOINT LeftShoulder
          {
            OFFSET 13.5163 -1.1332 -5.0146
            CHANNELS 3 Zrotation Xrotation Yrotation
            JOINT LeftElbow
            {
              OFFSET -0.0995 -28.05 -0.2431
              CHANNELS 3 Zrotation Xrotation Yrotation
              JOINT LeftWrist
              {
                OFFSET 0.0679 -23.3996 -0.1402
                CHANNELS 3 Zrotation Xrotation Yrotation
                JOINT LeftFinger1
                {
                  OFFSET 0.7932 -9.069 2.5189
                  CHANNELS 3 Zrotation Xrotation Yrotation
                  JOINT LeftFinger11
                  {
                    OFFSET -0.8272 -3.3923 0.5977
                    CHANNELS 3 Zrotation Xrotation Yrotation
                    JOINT LeftFinger12
                    {
                      OFFSET -0.5649 -2.3158 0.4082
                      CHANNELS 3 Zrotation Xrotation Yrotation
                      End Site
                      {
                        OFFSET -0.4919 -1.6479 0.2673
                      }
                    }
                  }
                }
                JOINT LeftFinger2
                {
                  OFFSET 0.9159 -9.2044 0.2193
                  CHANNELS 3 Zrotation Xrotation Yrotation
                  JOINT LeftFinger21
                  {
                    OFFSET 0.0117 -4.1944 -0.0248
                    CHANNELS 3 Zrotation Xrotation Yrotation
                    JOINT LeftFinger22
                    {
                      OFFSET 0.0071 -2.3249 -0.0142
                      CHANNELS 3 Zrotation Xrotation Yrotation
                      End Site
                      {
                        OFFSET -0.1475 -2.0882 0.0028
                      }
                    }
                  }
                }
                JOINT LeftFinger3
                {
                  OFFSET 0.6113 -8.7231 -2.0637
                  CHANNELS 3 Zrotation Xrotation Yrotation
                  JOINT LeftFinger31
                  {
                    OFFSET -0.1927 -3.8059 -0.2383
                    CHANNELS 3 Zrotation Xrotation Yrotation
                    JOINT LeftFinger32
                    {
                      OFFSET -0.1091 -2.1688 -0.1362
                      CHANNELS 3 Zrotation Xrotation Yrotation
                      End Site
                      {
                        OFFSET -0.2358 -1.9176 -0.0906
                      }
                    }
                  }
                }
                JOINT LeftFinger4
                {
                  OFFSET -0.6151 -8.0947 -3.5641
                  CHANNELS 3 Zrotation Xrotation Yrotation
                  JOINT LeftFinger41
                  {
                    OFFSET -0.4882 -2.341 -0.6462
                    CHANNELS 3 Zrotation Xrotation Yrotation
                    JOINT LeftFinger42
                    {
                      OFFSET -0.3575 -1.7167 -0.4742
                      CHANNELS 3 Zrotation Xrotation Yrotation
                      End Site
                      {
                        OFFSET -0.4187 -1.5237 -0.3496
                      }
                    }
                  }
                }
                JOINT LeftFinger0
                {
                  OFFSET -1.42 -1.8761 1.4223
                  CHANNELS 3 Zrotation Xrotation Yrotation
                  JOINT LeftFinger01
                  {
                    OFFSET -1.1471 -3.4929 2.6334
                    CHANNELS 3 Zrotation Xrotation Yrotation
                    JOINT LeftFinger02
                    {
                      OFFSET -0.823 -2.3 1.6571
                      CHANNELS 3 Zrotation Xrotation Yrotation
                      End Site
                      {
                        OFFSET -0.5822 -1.6914 1.1582
                      }
                    }
                  }
                }
              }
            }
          }
        }
        JOINT RightCollar
        {
          OFFSET -2.2603 21.606 7.4023
          CHANNELS 3 Zrotation Xrotation Yrotation
          JOINT RightShoulder
          {
            OFFSET -13.5187 -1.1334 -5.0155
            CHANNELS 3 Zrotation Xrotation Yrotation
            JOINT RightElbow
            {
              OFFSET 0.0994 -28.0499 -0.2431
              CHANNELS 3 Zrotation Xrotation Yrotation
              JOINT RightWrist
              {
                OFFSET -0.0679 -23.3996 -0.1402
                CHANNELS 3 Zrotation Xrotation Yrotation
                JOINT RightFinger1
                {
                  OFFSET -0.7932 -9.0691 2.5189
                  CHANNELS 3 Zrotation Xrotation Yrotation
                  JOINT RightFinger11
                  {
                    OFFSET 0.8272 -3.3923 0.5977
                    CHANNELS 3 Zrotation Xrotation Yrotation
                    JOINT RightFinger12
                    {
                      OFFSET 0.565 -2.3158 0.4082
                      CHANNELS 3 Zrotation Xrotation Yrotation
                      End Site
                      {
                        OFFSET 0.4919 -1.6479 0.2673
                      }
                    }
                  }
                }
                JOINT RightFinger2
                {
                  OFFSET -0.916 -9.2044 0.2193
                  CHANNELS 3 Zrotation Xrotation Yrotation
                  JOINT RightFinger21
                  {
                    OFFSET -0.0117 -4.1944 -0.0248
                    CHANNELS 3 Zrotation Xrotation Yrotation
                    JOINT RightFinger22
                    {
                      OFFSET -0.0071 -2.3249 -0.0142
                      CHANNELS 3 Zrotation Xrotation Yrotation
                      End Site
                      {
                        OFFSET 0.1475 -2.0882 0.0028
                      }
                    }
                  }
                }
                JOINT RightFinger3
                {
                  OFFSET -0.6113 -8.7231 -2.0637
                  CHANNELS 3 Zrotation Xrotation Yrotation
                  JOINT RightFinger31
                  {
                    OFFSET 0.1927 -3.8059 -0.2383
                    CHANNELS 3 Zrotation Xrotation Yrotation
                    JOINT RightFinger32
                    {
                      OFFSET 0.1091 -2.1688 -0.1362
                      CHANNELS 3 Zrotation Xrotation Yrotation
                      End Site
                      {
                        OFFSET 0.2358 -1.9176 -0.0906
                      }
                    }
                  }
                }
                JOINT RightFinger4
                {
                  OFFSET 0.6151 -8.0947 -3.564
                  CHANNELS 3 Zrotation Xrotation Yrotation
                  JOINT RightFinger41
                  {
                    OFFSET 0.4882 -2.341 -0.6462
                    CHANNELS 3 Zrotation Xrotation Yrotation
                    JOINT RightFinger42
                    {
                      OFFSET 0.3574 -1.7166 -0.4742
                      CHANNELS 3 Zrotation Xrotation Yrotation
                      End Site
                      {
                        OFFSET 0.4187 -1.5237 -0.3496
                      }
                    }
                  }
                }
                JOINT RightFinger0
                {
                  OFFSET 1.4199 -1.8761 1.4221
                  CHANNELS 3 Zrotation Xrotation Yrotation
                  JOINT RightFinger01
                  {
                    OFFSET 1.1472 -3.4929 2.6336
                    CHANNELS 3 Zrotation Xrotation Yrotation
                    JOINT RightFinger02
                    {
                      OFFSET 0.8229 -2.3 1.6571
                      CHANNELS 3 Zrotation Xrotation Yrotation
                      End Site
                      {
                        OFFSET 0.5822 -1.6914 1.1582
                      }
                    }
                  }
                }
              }
            }
          }
        }
      }
    }
  }
  JOINT RightHip
  {
    OFFSET -9.412 3.9771 -0.7758
    CHANNELS 3 Zrotation Xrotation Yrotation
    JOINT RightKnee
    {
      OFFSET -0.7531 -40.938 0
      CHANNELS 3 Zrotation Xrotation Yrotation
      JOINT RightAnkle
      {
        OFFSET 0 -40.1986 0
        CHANNELS 3 Zrotation Xrotation Yrotation
        JOINT RightToe
        {
          OFFSET 0 -4.4182 9.239
          CHANNELS 3 Zrotation Xrotation Yrotation
          End Site
          {
            OFFSET 0 0 6.1981
          }
        }
      }
    }
  }
  JOINT LeftHip
  {
    OFFSET 9.4119 3.9773 -0.7758
    CHANNELS 3 Zrotation Xrotation Yrotation
    JOINT LeftKnee
    {
      OFFSET 0.7532 -40.9383 0
      CHANNELS 3 Zrotation Xrotation Yrotation
      JOINT LeftAnkle
      {
        OFFSET 0 -40.1986 0
        CHANNELS 3 Zrotation Xrotation Yrotation
        JOINT LeftToe
        {
          OFFSET 0 -4.4182 9.239
          CHANNELS 3 Zrotation Xrotation Yrotation
          End Site
          {
            OFFSET 0 0 6.1981
          }
        }
      }
    }
  }
}
MOTION
Frames:	4
Frame Time:	0.0333333
0.807497 13.196 21.6318 175.356 -87.4294 -4.4277 -0.0923763 -3.67712 -0.280782 -0.203482 -7.35363 -0.569283 -0.203482 -7.35364 -0.569284 7.01093 -3.38608 -4.58549 7.03854e-007 -13.1526 1.23896e-006 10.7943 5.68526 -29.0967 81.4748 -16.7686 30.9751 -15.9141 -43.0125 -16.8291 58.6647 -13.6456 7.95395 4.77083e-015 -1.98785e-016 2.18663e-015 6.36111e-015 0 2.23633e-015 4.77083e-015 7.95139e-016 7.45443e-016 4.77083e-015 -1.98785e-016 2.18663e-015 -0.0128287 0.00234514 9.29113e-005 3.18055e-015 0 1.09332e-015 4.77083e-015 -1.98785e-016 2.18663e-015 -0.0160008 0.00299214 0.00085821 4.29321e-031 2.98177e-015 -8.24956e-015 4.77083e-015 -1.98785e-016 2.18663e-015 -0.0126188 0.00312433 0.00283286 -1.59028e-015 -7.95139e-016 -5.71506e-015 4.77083e-015 -1.98785e-016 2.18663e-015 6.36111e-015 0 2.23633e-015 4.77083e-015 7.95139e-016 7.45443e-016 21.5382 3.39113 9.34349 -73.6828 -31.3512 -0.290512 -12.6089 -29.3468 -14.1364 -57.5053 -10.9075 -6.61168 -4.77083e-015 -3.18055e-015 2.38542e-015 -1.59028e-015 6.36111e-015 2.38542e-015 -4.77083e-015 -1.27222e-014 3.97569e-015 -4.77083e-015 -3.18055e-015 2.38542e-015 0.0129581 0.00231644 -9.1279e-005 -4.77083e-015 -9.54166e-015 -7.95139e-016 -4.77083e-015 -3.18055e-015 2.38542e-015 0.0163432 0.00303018 -0.000873317 -3.18055e-015 -3.18055e-015 1.59028e-015 -4.77083e-015 -3.18055e-015 2.38542e-015 0.0146011 0.00368098 -0.00326872 -3.18055e-015 -6.36111e-015 -7.95139e-016 -4.77083e-015 -3.18055e-015 2.38542e-015 -1.59028e-015 6.36111e-015 2.38542e-015 -4.77083e-015 -1.27222e-014 3.97569e-015 -15.568 -37.7622 -26.5117 7.65179 47.9915 -4.5162 -3.18451 44.961 6.28184 -4.88681e-007 -1.15271e-008 -6.91199e-007 14.7274 -36.975 25.9441 -7.4325 46.2806 4.58735 3.14565 44.6593 -6.14077 2.27949e-006 -2.57891e-008 3.47369e-007 
0.808757 13.4967 21.8204 176.658 -86.1478 -3.11295 -0.0903325 -3.79078 -0.281811 -0.200055 -7.58103 -0.571509 -0.200055 -7.58103 -0.571509 7.01636 -4.06225 -4.5021 2.35128e-007 -13.2525 4.13252e-007 11.1661 5.09525 -28.421 81.4114 -16.9606 30.9421 -16.3874 -43.6757 -17.1722 58.7464 -13.1479 7.839 1.61383e-031 -1.19271e-015 7.7526e-015 1.6966e-031 -1.59028e-015 6.11263e-015 1.31038e-031 -7.95139e-016 9.44227e-015 1.61383e-031 -1.19271e-015 7.7526e-015 -0.0128071 0.00233569 9.57792e-005 1.59028e-015 9.93923e-016 -4.37326e-015 1.61383e-031 -1.19271e-015 7.7526e-015 -0.0160789 0.00299467 0.000853948 -2.35531e-006 -9.64301e-007 4.14286e-006 1.61383e-031 -1.19271e-015 7.7526e-015 -0.0126006 0.0031325 0.00282554 -5.04205e-007 1.16577e-005 1.09823e-005 1.61383e-031 -1.19271e-015 7.7526e-015 1.6966e-031 -1.59028e-015 6.11263e-015 1.31038e-031 -7.95139e-016 9.44227e-015 21.2216 3.08425 9.0029 -73.5117 -31.6931 -0.172974 -12.709 -29.7558 -14.183 -57.6975 -10.5811 -6.7216 -3.18055e-015 -3.18055e-015 -3.97569e-015 -1.59028e-015 -6.36111e-015 -3.18055e-015 -1.59028e-015 0 -7.95139e-016 -3.18055e-015 -3.18055e-015 -3.97569e-015 0.0129522 0.00233115 -9.29837e-005 3.18055e-015 6.36111e-015 7.95139e-016 -3.18055e-015 -3.18055e-015 -3.97569e-015 0.0163221 0.00303708 -0.000878222 3.18055e-015 9.54166e-015 -3.97569e-015 -3.18055e-015 -3.18055e-015 -3.97569e-015 0.0146153 0.00369537 -0.00326777 -2.13056e-006 -4.79489e-006 -1.05463e-006 -3.18055e-015 -3.18055e-015 -3.97569e-015 -1.59028e-015 -6.36111e-015 -3.18055e-015 -1.59028e-015 0 -7.95139e-016 -16.2493 -39.28 -27.7221 7.57919 48.4227 -4.51338 -3.83843 44.9311 6.9248 2.28224e-006 4.30625e-006 3.84368e-007 15.414 -38.5369 27.1166 -7.39706 46.7729 4.61244 3.77419 44.5979 -6.77497 1.78031e-006 -2.60588e-008 -3.3633e-007 
0.810068 13.7989 22.0052 177.305 -84.8661 -2.45165 -0.0882769 -3.90431 -0.282808 -0.196608 -7.80814 -0.573667 -0.196609 -7.80814 -0.573668 7.02278 -4.73872 -4.41854 1.00236e-006 -13.3523 -1.38504e-006 11.5444 4.50984 -27.7424 81.3448 -17.1532 30.908 -16.8688 -44.3375 -17.5272 58.8289 -12.6505 7.72351 -3.96562e-033 -1.98785e-016 -1.14301e-015 -1.59028e-015 -7.95139e-016 2.03754e-015 -1.59316e-006 -4.15961e-007 1.59696e-006 -3.96562e-033 -1.98785e-016 -1.14301e-015 -0.0128021 0.00233828 9.98678e-005 -1.59028e-015 1.98785e-016 5.81445e-015 -3.96562e-033 -1.98785e-016 -1.14301e-015 -0.016052 0.00299918 0.000864156 1.59028e-015 1.98785e-016 -3.08116e-015 -3.96562e-033 -1.98785e-016 -1.14301e-015 -0.0126111 0.0031384 0.00284926 -3.18055e-015 1.78906e-015 -1.97294e-014 -3.96562e-033 -1.98785e-016 -1.14301e-015 -1.59028e-015 -7.95139e-016 2.03754e-015 -1.59316e-006 -4.15961e-007 1.59696e-006 20.9033 2.77921 8.66079 -73.3496 -32.0401 -0.0593687 -12.8001 -30.1593 -14.2291 -57.889 -10.2543 -6.83032 -2.20695e-031 -3.18055e-015 -3.97569e-015 -3.18055e-015 -6.36111e-015 -2.38542e-015 1.31587e-006 3.03918e-006 1.03741e-006 -2.20695e-031 -3.18055e-015 -3.97569e-015 0.012973 0.00231993 -8.40017e-005 -7.01997e-007 -2.86177e-006 3.7499e-006 -2.20695e-031 -3.18055e-015 -3.97569e-015 0.0163427 0.00302236 -0.000866929 -6.36111e-015 9.54166e-015 1.27222e-014 -2.20695e-031 -3.18055e-015 -3.97569e-015 0.0145663 0.00367122 -0.0032544 1.31572e-006 -3.77259e-009 1.03752e-006 -2.20695e-031 -3.18055e-015 -3.97569e-015 -3.18055e-015 -6.36111e-015 -2.38542e-015 1.31587e-006 3.03918e-006 1.03741e-006 -16.9875 -40.7834 -28.9815 7.50777 48.8533 -4.51028 -4.49197 44.8961 7.56708 -4.89154e-007 -1.16627e-008 -6.90981e-007 16.1567 -40.0851 28.3376 -7.3634 47.2652 4.63811 4.40163 44.5317 -7.40768 1.76556e-031 6.36111e-015 -1.59028e-015 
0.811421 14.1024 22.1862 177.691 -83.5853 -2.05202 -0.0862109 -4.0177 -0.283775 -0.193142 -8.03487 -0.575759 -0.193142 -8.03486 -0.575759 7.03021 -5.41539 -4.33479 -1.23708e-006 -13.4521 9.71138e-007 11.929 3.92927 -27.0608 81.2795 -17.3454 30.8741 -17.3627 -44.9965 -17.8937 58.9123 -12.1532 7.60755 1.51728e-032 -7.95139e-016 1.09332e-015 1.59028e-015 0 -3.42904e-015 -1.59028e-015 0 1.49089e-015 1.51728e-032 -7.95139e-016 1.09332e-015 -0.0128192 0.00232546 8.79255e-005 -4.77083e-015 2.38542e-015 -7.45443e-015 1.51728e-032 -7.95139e-016 1.09332e-015 -0.0160538 0.00299487 0.000860298 -1.59028e-015 -7.95139e-016 4.72114e-015 1.51728e-032 -7.95139e-016 1.09332e-015 -0.0125756 0.0031283 0.00282946 1.59028e-015 -3.97569e-016 5.41688e-015 1.51728e-032 -7.95139e-016 1.09332e-015 1.59028e-015 0 -3.42904e-015 -1.59028e-015 0 1.49089e-015 20.5833 2.47617 8.31713 -73.1746 -32.3806 0.0619408 -12.9025 -30.5687 -14.2779 -58.0796 -9.92727 -6.93781 6.86618e-006 2.65022e-006 -8.12561e-006 3.24853e-006 1.05044e-006 6.86085e-006 -9.54166e-015 1.27222e-014 8.74653e-015 6.86618e-006 2.65022e-006 -8.12561e-006 0.0129136 0.00230478 -7.97566e-005 -3.18055e-015 -3.18055e-015 7.95139e-016 6.86618e-006 2.65022e-006 -8.12561e-006 0.0163269 0.00302886 -0.000865212 7.48299e-006 -6.56979e-007 -3.33815e-006 6.86618e-006 2.65022e-006 -8.12561e-006 0.0146 0.00368604 -0.00325817 1.76556e-031 3.18055e-015 -3.18055e-015 6.86618e-006 2.65022e-006 -8.12561e-006 3.24853e-006 1.05044e-006 6.86085e-006 -9.54166e-015 1.27222e-014 8.74653e-015 -17.7867 -42.2701 -30.2942 7.43774 49.2831 -4.50673 -5.14478 44.856 8.20842 8.14869e-007 -4.63767e-007 -1.68915e-006 16.9599 -41.6167 29.6116 -7.33223 47.7571 4.66422 5.02773 44.4603 -8.03872 -3.83406e-006 2.23441e-006 -8.06099e-007 
